<svg xmlns="http://www.w3.org/2000/svg" viewBox="0 0 800 900" font-family="'Microsoft YaHei', sans-serif">
  <rect width="800" height="900" fill="#fafafa" rx="12"/>

  <!-- Title -->
  <text x="400" y="34" text-anchor="middle" font-size="16" font-weight="bold" fill="#242424">注意力机制：同一个词，不同语境，不同理解</text>

  <!-- ══════════════════════════════════════════════ -->
  <!-- SENTENCE 1 -->
  <!-- ══════════════════════════════════════════════ -->
  <text x="40" y="62" font-size="13" fill="#6B6B6B">句子 1：</text>
  <rect x="40" y="70" width="720" height="40" rx="8" fill="#fff" stroke="#E6E6E6"/>
  <text x="60" y="96" font-size="15" fill="#242424">我很喜欢吃</text>
  <rect x="178" y="76" width="52" height="28" rx="6" fill="#1A8917" opacity="0.15"/>
  <text x="204" y="96" text-anchor="middle" font-size="15" font-weight="bold" fill="#1A8917">苹果</text>
  <text x="238" y="96" font-size="15" fill="#242424">，又</text>
  <text x="278" y="96" font-size="15" fill="#e05c00">甜</text>
  <text x="296" y="96" font-size="15" fill="#242424">又</text>
  <text x="314" y="96" font-size="15" fill="#e05c00">脆</text>
  <text x="332" y="96" font-size="15" fill="#242424">。</text>
  <text x="420" y="96" font-size="13" fill="#1A8917" font-weight="bold">→ 关注"甜"、"脆" → 水果 🍎</text>

  <!-- Matrix 1 title -->
  <text x="400" y="132" text-anchor="middle" font-size="13" font-weight="bold" fill="#1A8917">句子1 注意力权重矩阵</text>

  <!-- Col headers -->
  <text x="210" y="154" text-anchor="middle" font-size="12" fill="#6B6B6B">我</text>
  <text x="265" y="154" text-anchor="middle" font-size="12" fill="#6B6B6B">吃</text>
  <text x="320" y="154" text-anchor="middle" font-size="12" fill="#1A8917" font-weight="bold">苹果</text>
  <text x="375" y="154" text-anchor="middle" font-size="12" fill="#e05c00">甜</text>
  <text x="430" y="154" text-anchor="middle" font-size="12" fill="#e05c00">脆</text>

  <!-- Row headers -->
  <text x="160" y="178" text-anchor="middle" font-size="12" fill="#6B6B6B">我</text>
  <text x="160" y="218" text-anchor="middle" font-size="12" fill="#6B6B6B">吃</text>
  <text x="160" y="258" text-anchor="middle" font-size="12" fill="#1A8917" font-weight="bold">苹果</text>
  <text x="160" y="298" text-anchor="middle" font-size="12" fill="#e05c00">甜</text>
  <text x="160" y="338" text-anchor="middle" font-size="12" fill="#e05c00">脆</text>

  <!-- Row 我 -->
  <rect x="183" y="161" width="52" height="30" rx="3" fill="#1A8917" opacity="0.75"/><text x="210" y="181" text-anchor="middle" font-size="11" fill="white">0.8</text>
  <rect x="238" y="161" width="52" height="30" rx="3" fill="#1A8917" opacity="0.10"/><text x="265" y="181" text-anchor="middle" font-size="11" fill="#888">0.1</text>
  <rect x="293" y="161" width="52" height="30" rx="3" fill="#1A8917" opacity="0.10"/><text x="320" y="181" text-anchor="middle" font-size="11" fill="#888">0.1</text>
  <rect x="348" y="161" width="52" height="30" rx="3" fill="#1A8917" opacity="0.03"/><text x="375" y="181" text-anchor="middle" font-size="11" fill="#bbb">0.0</text>
  <rect x="403" y="161" width="52" height="30" rx="3" fill="#1A8917" opacity="0.03"/><text x="430" y="181" text-anchor="middle" font-size="11" fill="#bbb">0.0</text>

  <!-- Row 吃 -->
  <rect x="183" y="201" width="52" height="30" rx="3" fill="#1A8917" opacity="0.10"/><text x="210" y="221" text-anchor="middle" font-size="11" fill="#888">0.1</text>
  <rect x="238" y="201" width="52" height="30" rx="3" fill="#1A8917" opacity="0.40"/><text x="265" y="221" text-anchor="middle" font-size="11" fill="white">0.4</text>
  <rect x="293" y="201" width="52" height="30" rx="3" fill="#1A8917" opacity="0.50"/><text x="320" y="221" text-anchor="middle" font-size="11" fill="white">0.5</text>
  <rect x="348" y="201" width="52" height="30" rx="3" fill="#1A8917" opacity="0.10"/><text x="375" y="221" text-anchor="middle" font-size="11" fill="#888">0.1</text>
  <rect x="403" y="201" width="52" height="30" rx="3" fill="#1A8917" opacity="0.03"/><text x="430" y="221" text-anchor="middle" font-size="11" fill="#bbb">0.0</text>

  <!-- Row 苹果 (highlighted) -->
  <rect x="183" y="241" width="272" height="30" rx="3" fill="none" stroke="#1A8917" stroke-width="2"/>
  <rect x="183" y="241" width="52" height="30" rx="3" fill="#1A8917" opacity="0.03"/><text x="210" y="261" text-anchor="middle" font-size="11" fill="#bbb">0.0</text>
  <rect x="238" y="241" width="52" height="30" rx="3" fill="#1A8917" opacity="0.30"/><text x="265" y="261" text-anchor="middle" font-size="11" fill="white">0.3</text>
  <rect x="293" y="241" width="52" height="30" rx="3" fill="#1A8917" opacity="0.20"/><text x="320" y="261" text-anchor="middle" font-size="11" fill="#555">0.2</text>
  <rect x="348" y="241" width="52" height="30" rx="3" fill="#1A8917" opacity="0.72"/><text x="375" y="261" text-anchor="middle" font-size="11" fill="white">0.7</text>
  <rect x="403" y="241" width="52" height="30" rx="3" fill="#1A8917" opacity="0.62"/><text x="430" y="261" text-anchor="middle" font-size="11" fill="white">0.6</text>
  <text x="465" y="261" font-size="11" fill="#1A8917">← 关注甜(0.7)脆(0.6) → 水果</text>

  <!-- Row 甜 -->
  <rect x="183" y="281" width="52" height="30" rx="3" fill="#1A8917" opacity="0.03"/><text x="210" y="301" text-anchor="middle" font-size="11" fill="#bbb">0.0</text>
  <rect x="238" y="281" width="52" height="30" rx="3" fill="#1A8917" opacity="0.20"/><text x="265" y="301" text-anchor="middle" font-size="11" fill="#555">0.2</text>
  <rect x="293" y="281" width="52" height="30" rx="3" fill="#1A8917" opacity="0.60"/><text x="320" y="301" text-anchor="middle" font-size="11" fill="white">0.6</text>
  <rect x="348" y="281" width="52" height="30" rx="3" fill="#1A8917" opacity="0.50"/><text x="375" y="301" text-anchor="middle" font-size="11" fill="white">0.5</text>
  <rect x="403" y="281" width="52" height="30" rx="3" fill="#1A8917" opacity="0.30"/><text x="430" y="301" text-anchor="middle" font-size="11" fill="white">0.3</text>

  <!-- Row 脆 -->
  <rect x="183" y="321" width="52" height="30" rx="3" fill="#1A8917" opacity="0.03"/><text x="210" y="341" text-anchor="middle" font-size="11" fill="#bbb">0.0</text>
  <rect x="238" y="321" width="52" height="30" rx="3" fill="#1A8917" opacity="0.10"/><text x="265" y="341" text-anchor="middle" font-size="11" fill="#888">0.1</text>
  <rect x="293" y="321" width="52" height="30" rx="3" fill="#1A8917" opacity="0.50"/><text x="320" y="341" text-anchor="middle" font-size="11" fill="white">0.5</text>
  <rect x="348" y="321" width="52" height="30" rx="3" fill="#1A8917" opacity="0.30"/><text x="375" y="341" text-anchor="middle" font-size="11" fill="white">0.3</text>
  <rect x="403" y="321" width="52" height="30" rx="3" fill="#1A8917" opacity="0.72"/><text x="430" y="341" text-anchor="middle" font-size="11" fill="white">0.7</text>

  <!-- Divider -->
  <line x1="40" y1="372" x2="760" y2="372" stroke="#E6E6E6" stroke-width="1.5"/>

  <!-- ══════════════════════════════════════════════ -->
  <!-- SENTENCE 2 -->
  <!-- ══════════════════════════════════════════════ -->
  <text x="40" y="400" text-anchor="middle" font-size="13" fill="#6B6B6B">句子 2：</text>
  <rect x="40" y="408" width="720" height="40" rx="8" fill="#fff" stroke="#E6E6E6"/>
  <rect x="40" y="414" width="52" height="28" rx="6" fill="#764ba2" opacity="0.15"/>
  <text x="66" y="434" text-anchor="middle" font-size="15" font-weight="bold" fill="#764ba2">苹果</text>
  <text x="100" y="434" font-size="15" fill="#e05c00">公司</text>
  <text x="134" y="434" font-size="15" fill="#242424">发布了新款</text>
  <text x="234" y="434" font-size="15" fill="#e05c00">iPhone</text>
  <text x="300" y="434" font-size="15" fill="#242424">。</text>
  <text x="420" y="434" font-size="13" fill="#764ba2" font-weight="bold">→ 关注"公司"、"iPhone" → 科技公司 💻</text>

  <!-- Matrix 2 title -->
  <text x="400" y="470" text-anchor="middle" font-size="13" font-weight="bold" fill="#764ba2">句子2 注意力权重矩阵</text>

  <!-- Col headers -->
  <text x="210" y="492" text-anchor="middle" font-size="12" fill="#764ba2" font-weight="bold">苹果</text>
  <text x="265" y="492" text-anchor="middle" font-size="12" fill="#e05c00">公司</text>
  <text x="320" y="492" text-anchor="middle" font-size="12" fill="#6B6B6B">发布了</text>
  <text x="375" y="492" text-anchor="middle" font-size="12" fill="#6B6B6B">新款</text>
  <text x="430" y="492" text-anchor="middle" font-size="12" fill="#e05c00">iPhone</text>

  <!-- Row headers -->
  <text x="160" y="516" text-anchor="middle" font-size="12" fill="#764ba2" font-weight="bold">苹果</text>
  <text x="160" y="556" text-anchor="middle" font-size="12" fill="#e05c00">公司</text>
  <text x="160" y="596" text-anchor="middle" font-size="12" fill="#6B6B6B">发布了</text>
  <text x="160" y="636" text-anchor="middle" font-size="12" fill="#6B6B6B">新款</text>
  <text x="160" y="676" text-anchor="middle" font-size="12" fill="#e05c00">iPhone</text>

  <!-- Row 苹果 (highlighted) -->
  <rect x="183" y="499" width="272" height="30" rx="3" fill="none" stroke="#764ba2" stroke-width="2"/>
  <rect x="183" y="499" width="52" height="30" rx="3" fill="#764ba2" opacity="0.20"/><text x="210" y="519" text-anchor="middle" font-size="11" fill="#555">0.2</text>
  <rect x="238" y="499" width="52" height="30" rx="3" fill="#764ba2" opacity="0.72"/><text x="265" y="519" text-anchor="middle" font-size="11" fill="white">0.7</text>
  <rect x="293" y="499" width="52" height="30" rx="3" fill="#764ba2" opacity="0.10"/><text x="320" y="519" text-anchor="middle" font-size="11" fill="#888">0.1</text>
  <rect x="348" y="499" width="52" height="30" rx="3" fill="#764ba2" opacity="0.03"/><text x="375" y="519" text-anchor="middle" font-size="11" fill="#bbb">0.0</text>
  <rect x="403" y="499" width="52" height="30" rx="3" fill="#764ba2" opacity="0.62"/><text x="430" y="519" text-anchor="middle" font-size="11" fill="white">0.6</text>
  <text x="465" y="519" font-size="11" fill="#764ba2">← 关注公司(0.7)iPhone(0.6) → 科技公司</text>

  <!-- Row 公司 -->
  <rect x="183" y="539" width="52" height="30" rx="3" fill="#764ba2" opacity="0.65"/><text x="210" y="559" text-anchor="middle" font-size="11" fill="white">0.6</text>
  <rect x="238" y="539" width="52" height="30" rx="3" fill="#764ba2" opacity="0.75"/><text x="265" y="559" text-anchor="middle" font-size="11" fill="white">0.8</text>
  <rect x="293" y="539" width="52" height="30" rx="3" fill="#764ba2" opacity="0.10"/><text x="320" y="559" text-anchor="middle" font-size="11" fill="#888">0.1</text>
  <rect x="348" y="539" width="52" height="30" rx="3" fill="#764ba2" opacity="0.03"/><text x="375" y="559" text-anchor="middle" font-size="11" fill="#bbb">0.0</text>
  <rect x="403" y="539" width="52" height="30" rx="3" fill="#764ba2" opacity="0.10"/><text x="430" y="559" text-anchor="middle" font-size="11" fill="#888">0.1</text>

  <!-- Row 发布了 -->
  <rect x="183" y="579" width="52" height="30" rx="3" fill="#764ba2" opacity="0.10"/><text x="210" y="599" text-anchor="middle" font-size="11" fill="#888">0.1</text>
  <rect x="238" y="579" width="52" height="30" rx="3" fill="#764ba2" opacity="0.30"/><text x="265" y="599" text-anchor="middle" font-size="11" fill="white">0.3</text>
  <rect x="293" y="579" width="52" height="30" rx="3" fill="#764ba2" opacity="0.50"/><text x="320" y="599" text-anchor="middle" font-size="11" fill="white">0.5</text>
  <rect x="348" y="579" width="52" height="30" rx="3" fill="#764ba2" opacity="0.40"/><text x="375" y="599" text-anchor="middle" font-size="11" fill="white">0.4</text>
  <rect x="403" y="579" width="52" height="30" rx="3" fill="#764ba2" opacity="0.20"/><text x="430" y="599" text-anchor="middle" font-size="11" fill="#555">0.2</text>

  <!-- Row 新款 -->
  <rect x="183" y="619" width="52" height="30" rx="3" fill="#764ba2" opacity="0.03"/><text x="210" y="639" text-anchor="middle" font-size="11" fill="#bbb">0.0</text>
  <rect x="238" y="619" width="52" height="30" rx="3" fill="#764ba2" opacity="0.20"/><text x="265" y="639" text-anchor="middle" font-size="11" fill="#555">0.2</text>
  <rect x="293" y="619" width="52" height="30" rx="3" fill="#764ba2" opacity="0.30"/><text x="320" y="639" text-anchor="middle" font-size="11" fill="white">0.3</text>
  <rect x="348" y="619" width="52" height="30" rx="3" fill="#764ba2" opacity="0.50"/><text x="375" y="639" text-anchor="middle" font-size="11" fill="white">0.5</text>
  <rect x="403" y="619" width="52" height="30" rx="3" fill="#764ba2" opacity="0.60"/><text x="430" y="639" text-anchor="middle" font-size="11" fill="white">0.6</text>

  <!-- Row iPhone -->
  <rect x="183" y="659" width="52" height="30" rx="3" fill="#764ba2" opacity="0.50"/><text x="210" y="679" text-anchor="middle" font-size="11" fill="white">0.5</text>
  <rect x="238" y="659" width="52" height="30" rx="3" fill="#764ba2" opacity="0.62"/><text x="265" y="679" text-anchor="middle" font-size="11" fill="white">0.6</text>
  <rect x="293" y="659" width="52" height="30" rx="3" fill="#764ba2" opacity="0.20"/><text x="320" y="679" text-anchor="middle" font-size="11" fill="#555">0.2</text>
  <rect x="348" y="659" width="52" height="30" rx="3" fill="#764ba2" opacity="0.10"/><text x="375" y="679" text-anchor="middle" font-size="11" fill="#888">0.1</text>
  <rect x="403" y="659" width="52" height="30" rx="3" fill="#764ba2" opacity="0.72"/><text x="430" y="679" text-anchor="middle" font-size="11" fill="white">0.7</text>

  <!-- Legend -->
  <rect x="530" y="580" width="14" height="14" rx="3" fill="#555" opacity="0.75"/><text x="550" y="592" font-size="11" fill="#555">高关注 (0.6~0.8)</text>
  <rect x="530" y="600" width="14" height="14" rx="3" fill="#555" opacity="0.35"/><text x="550" y="612" font-size="11" fill="#555">中关注 (0.2~0.5)</text>
  <rect x="530" y="620" width="14" height="14" rx="3" fill="#555" opacity="0.06"/><text x="550" y="632" font-size="11" fill="#555">低关注 (0.0~0.1)</text>

  <!-- Bottom conclusion -->
  <rect x="40" y="710" width="720" height="50" rx="8" fill="#fff" stroke="#E6E6E6"/>
  <text x="400" y="730" text-anchor="middle" font-size="13" font-weight="bold" fill="#242424">结论：同一个"苹果"，因上下文不同，模型关注的词完全不同</text>
  <text x="400" y="750" text-anchor="middle" font-size="12" fill="#6B6B6B">句子1 关注"甜"、"脆" → 水果语境 ｜ 句子2 关注"公司"、"iPhone" → 科技公司语境</text>
</svg>
