<svg xmlns="http://www.w3.org/2000/svg" viewBox="0 0 900 550" font-family="'Microsoft YaHei', sans-serif">
  <defs>
    <marker id="arrow2" markerWidth="10" markerHeight="10" refX="9" refY="3" orient="auto">
      <polygon points="0 0, 10 3, 0 6" fill="#666"/>
    </marker>
  </defs>

  <rect width="900" height="550" fill="#fafafa" rx="12"/>

  <!-- Title -->
  <text x="450" y="35" text-anchor="middle" font-size="18" font-weight="bold" fill="#242424">RLHF（人类反馈强化学习）对齐架构</text>

  <!-- Step 1: Supervised Fine-tuning -->
  <rect x="40" y="70" width="250" height="140" rx="10" fill="#e3f2fd" stroke="#1976d2" stroke-width="2"/>
  <text x="165" y="95" text-anchor="middle" font-size="14" font-weight="bold" fill="#1976d2">步骤 1：监督微调（SFT）</text>

  <rect x="60" y="110" width="210" height="35" rx="6" fill="#fff" stroke="#1976d2"/>
  <text x="165" y="132" text-anchor="middle" font-size="11" fill="#242424">预训练模型（GPT-3.5 Base）</text>

  <line x1="165" y1="145" x2="165" y2="160" stroke="#666" stroke-width="2" marker-end="url(#arrow2)"/>

  <rect x="60" y="160" width="210" height="35" rx="6" fill="#fff" stroke="#1976d2"/>
  <text x="165" y="182" text-anchor="middle" font-size="11" fill="#242424">高质量人工标注数据</text>
  <text x="165" y="195" text-anchor="middle" font-size="9" fill="#666">（问题 + 理想答案）</text>

  <!-- Arrow to Step 2 -->
  <line x1="290" y1="140" x2="330" y2="140" stroke="#666" stroke-width="2" marker-end="url(#arrow2)"/>

  <!-- Step 2: Reward Model Training -->
  <rect x="330" y="70" width="250" height="140" rx="10" fill="#fff3e0" stroke="#f57c00" stroke-width="2"/>
  <text x="455" y="95" text-anchor="middle" font-size="14" font-weight="bold" fill="#f57c00">步骤 2：训练奖励模型（RM）</text>

  <rect x="350" y="110" width="210" height="45" rx="6" fill="#fff" stroke="#f57c00"/>
  <text x="455" y="128" text-anchor="middle" font-size="11" fill="#242424">收集人类偏好数据</text>
  <text x="455" y="143" text-anchor="middle" font-size="9" fill="#666">对比两个回答：A vs B</text>
  <text x="455" y="155" text-anchor="middle" font-size="9" fill="#666">人类选择更好的那个</text>

  <line x1="455" y1="155" x2="455" y2="170" stroke="#666" stroke-width="2" marker-end="url(#arrow2)"/>

  <rect x="350" y="170" width="210" height="30" rx="6" fill="#fff" stroke="#f57c00"/>
  <text x="455" y="190" text-anchor="middle" font-size="11" fill="#242424">训练奖励模型预测人类偏好</text>

  <!-- Arrow to Step 3 -->
  <line x1="580" y1="140" x2="620" y2="140" stroke="#666" stroke-width="2" marker-end="url(#arrow2)"/>

  <!-- Step 3: RL Fine-tuning -->
  <rect x="620" y="70" width="240" height="140" rx="10" fill="#f3e5f5" stroke="#7b1fa2" stroke-width="2"/>
  <text x="740" y="95" text-anchor="middle" font-size="14" font-weight="bold" fill="#7b1fa2">步骤 3：强化学习微调</text>

  <rect x="640" y="110" width="200" height="35" rx="6" fill="#fff" stroke="#7b1fa2"/>
  <text x="740" y="132" text-anchor="middle" font-size="11" fill="#242424">模型生成回答</text>

  <line x1="740" y1="145" x2="740" y2="160" stroke="#666" stroke-width="2" marker-end="url(#arrow2)"/>

  <rect x="640" y="160" width="200" height="35" rx="6" fill="#fff" stroke="#7b1fa2"/>
  <text x="740" y="177" text-anchor="middle" font-size="11" fill="#242424">奖励模型打分</text>
  <text x="740" y="190" text-anchor="middle" font-size="9" fill="#666">（高分 = 更符合人类偏好）</text>

  <!-- Detailed workflow -->
  <rect x="40" y="240" width="820" height="280" rx="10" fill="#e8f5e9" stroke="#1A8917" stroke-width="2"/>
  <text x="60" y="265" font-size="14" font-weight="bold" fill="#1A8917">详细工作流程</text>

  <!-- Human labeler -->
  <ellipse cx="120" cy="320" rx="60" ry="40" fill="#fff" stroke="#1A8917" stroke-width="2"/>
  <text x="120" y="315" text-anchor="middle" font-size="12" font-weight="bold" fill="#242424">人类</text>
  <text x="120" y="330" text-anchor="middle" font-size="12" font-weight="bold" fill="#242424">标注员</text>

  <!-- Prompt -->
  <rect x="220" y="290" width="160" height="60" rx="8" fill="#fff" stroke="#1A8917" stroke-width="2"/>
  <text x="300" y="310" text-anchor="middle" font-size="11" font-weight="bold" fill="#242424">输入提示</text>
  <text x="300" y="327" text-anchor="middle" font-size="10" fill="#666">"如何学习编程？"</text>

  <line x1="180" y1="320" x2="220" y2="320" stroke="#1A8917" stroke-width="2" marker-end="url(#arrow2)"/>

  <!-- Model generates -->
  <rect x="410" y="290" width="160" height="60" rx="8" fill="#fff" stroke="#1A8917" stroke-width="2"/>
  <text x="490" y="310" text-anchor="middle" font-size="11" font-weight="bold" fill="#242424">模型生成多个回答</text>
  <text x="490" y="327" text-anchor="middle" font-size="9" fill="#666">回答 A、B、C、D</text>

  <line x1="380" y1="320" x2="410" y2="320" stroke="#1A8917" stroke-width="2" marker-end="url(#arrow2)"/>

  <!-- Human ranks -->
  <rect x="600" y="290" width="160" height="60" rx="8" fill="#fff" stroke="#1A8917" stroke-width="2"/>
  <text x="680" y="310" text-anchor="middle" font-size="11" font-weight="bold" fill="#242424">人类排序</text>
  <text x="680" y="327" text-anchor="middle" font-size="9" fill="#666">B &gt; A &gt; D &gt; C</text>

  <line x1="570" y1="320" x2="600" y2="320" stroke="#1A8917" stroke-width="2" marker-end="url(#arrow2)"/>

  <!-- Reward model -->
  <rect x="220" y="380" width="160" height="60" rx="8" fill="#ffe0b2" stroke="#f57c00" stroke-width="2"/>
  <text x="300" y="400" text-anchor="middle" font-size="11" font-weight="bold" fill="#242424">奖励模型</text>
  <text x="300" y="417" text-anchor="middle" font-size="9" fill="#666">学习人类偏好模式</text>
  <text x="300" y="432" text-anchor="middle" font-size="9" fill="#666">输出：分数 0-1</text>

  <line x1="680" y1="350" x2="680" y2="470" stroke="#1A8917" stroke-width="2"/>
  <line x1="680" y1="470" x2="300" y2="470" stroke="#1A8917" stroke-width="2"/>
  <line x1="300" y1="470" x2="300" y2="440" stroke="#1A8917" stroke-width="2" marker-end="url(#arrow2)"/>
  <text x="490" y="485" text-anchor="middle" font-size="10" fill="#1A8917">训练数据</text>

  <!-- Policy model -->
  <rect x="410" y="380" width="160" height="60" rx="8" fill="#e1bee7" stroke="#7b1fa2" stroke-width="2"/>
  <text x="490" y="400" text-anchor="middle" font-size="11" font-weight="bold" fill="#242424">策略模型</text>
  <text x="490" y="417" text-anchor="middle" font-size="9" fill="#666">（待优化的 LLM）</text>

  <line x1="380" y1="410" x2="410" y2="410" stroke="#7b1fa2" stroke-width="2" marker-end="url(#arrow2)"/>
  <text x="395" y="405" text-anchor="middle" font-size="9" fill="#7b1fa2">奖励信号</text>

  <!-- PPO optimizer -->
  <rect x="600" y="380" width="160" height="60" rx="8" fill="#c5cae9" stroke="#3f51b5" stroke-width="2"/>
  <text x="680" y="400" text-anchor="middle" font-size="11" font-weight="bold" fill="#242424">PPO 优化器</text>
  <text x="680" y="417" text-anchor="middle" font-size="9" fill="#666">调整模型参数</text>
  <text x="680" y="432" text-anchor="middle" font-size="9" fill="#666">最大化奖励</text>

  <line x1="570" y1="410" x2="600" y2="410" stroke="#3f51b5" stroke-width="2" marker-end="url(#arrow2)"/>

  <!-- Feedback loop -->
  <path d="M 680 380 L 680 360 L 490 360 L 490 380" fill="none" stroke="#3f51b5" stroke-width="2" stroke-dasharray="5,5" marker-end="url(#arrow2)"/>
  <text x="585" y="355" text-anchor="middle" font-size="9" fill="#3f51b5">更新参数</text>

  <!-- Bottom note -->
  <text x="450" y="540" text-anchor="middle" font-size="11" fill="#666">通过数千次迭代，模型逐渐学会生成更符合人类价值观的回答</text>
</svg>
